<svg xmlns="http://www.w3.org/2000/svg" viewBox="0 0 892.66 245.11"><defs><style>.cls-1{fill:#262525;}.cls-2{fill:none;}</style></defs><title>yin2_1</title><g id="Layer_2" data-name="Layer 2"><g id="Home_Page" data-name="Home Page"><path class="cls-1" d="M532.39,181.06Q580.43,73,596.44,8.93q52,24,92.07,36-28.05,44.1-42,70.05t-34,66.05h128.1q80,0,152.11-4v68.05q-72.06-3.95-152.11-4H152.11Q72,241.1,0,245.11V177.06q76,4,152.11,4H268.2Q236.12,97,196.14,45q36-20,68.05-40c34.66,53.41,87,136,111,176.07"/><polygon class="cls-2" points="596.18 0 892.18 0 892.18 245 0.18 245 0.18 0 264.19 0 377.18 172 529.18 174 596.18 0"/></g></g></svg>