<svg xmlns="http://www.w3.org/2000/svg" viewBox="0 0 76.23 75.15"><defs><style>.cls-1{fill:none;stroke:#231f20;stroke-width:0.3px;}</style></defs><title>Asset 4</title><g id="Layer_2" data-name="Layer 2"><g id="About"><polyline class="cls-1" points="47.4 26.24 40.73 23.41 42.7 30.56"/><polyline class="cls-1" points="31.57 16.97 38.61 13.37 31.96 11.37"/><polyline class="cls-1" points="48.8 24.63 55.08 21.05 48.7 17.26"/><polyline class="cls-1" points="28.68 26.88 28.41 19.17 23.17 23.68"/><polyline class="cls-1" points="58.94 42.69 65.44 45.9 63.87 38.65"/><polyline class="cls-1" points="56.95 58.17 56.89 50.92 51.12 55.59"/><polyline class="cls-1" points="51.67 43.12 51.54 50.37 57.44 45.86"/><polyline class="cls-1" points="45.2 36.09 52.44 35.65 47.48 30.13"/><polyline class="cls-1" points="42.14 42.06 47.94 46.4 47.73 38.98"/><polyline class="cls-1" points="30.96 50.3 27.53 45.72 25.41 50.96"/><polyline class="cls-1" points="32.07 39.65 38.75 42.49 35.96 35.68"/><polyline class="cls-1" points="14.99 51.99 12.44 44.78 8.17 50.85"/><polyline class="cls-1" points="33.24 26.05 32.74 32.3 39.05 28.68"/><polyline class="cls-1" points="7.11 17.87 13.44 21.4 12.24 14.08"/><polyline class="cls-1" points="25.13 38.93 19.49 34.38 19.44 41.8"/><polyline class="cls-1" points="23.19 19.15 17.39 13.01 16.77 21.25"/><polyline class="cls-1" points="23.92 53.7 26.33 60.34 31.04 52.54"/><polyline class="cls-1" points="41.65 12.48 41.94 20.65 47.02 15.25"/><polyline class="cls-1" points="16.77 36.09 10.28 34.66 13.19 41.49"/><polyline class="cls-1" points="61.94 48.01 59.69 54.9 66.65 52.32"/><polyline class="cls-1" points="56.95 35.04 53.58 41.26 60.24 40.51"/><polyline class="cls-1" points="52.3 7.33 59.55 7.5 55.07 1.58"/><polyline class="cls-1" points="63.51 2.4 63.5 9.65 69.32 5.04"/><polyline class="cls-1" points="25.35 35.59 29.3 29.51 21.91 30.22"/><polyline class="cls-1" points="38.69 18.9 31.44 18.75 35.94 24.66"/><polyline class="cls-1" points="29.45 67.82 32.52 60.05 24.95 63.3"/><polyline class="cls-1" points="65.16 13.42 58.69 10.15 60.2 17.42"/><polyline class="cls-1" points="33.69 48.4 40.15 51.06 37.44 44.15"/><polyline class="cls-1" points="41.45 48.76 48.44 50.68 42.44 55.05"/><polyline class="cls-1" points="20.3 21.56 16.77 27.89 23.84 27.68"/><polyline class="cls-1" points="56.69 60.78 50.28 64.15 57.07 67.14"/><polyline class="cls-1" points="46.77 55.27 46.07 62.49 52.3 58.45"/><polyline class="cls-1" points="40.82 3.23 38.98 10.93 45.78 7.51"/><polyline class="cls-1" points="58.93 60.22 65.59 63.08 63.64 55.92"/><polyline class="cls-1" points="10.44 23.4 3.67 20.64 6.69 27.65"/><polyline class="cls-1" points="19.94 60.15 20.66 51.01 14.16 55.58"/><polyline class="cls-1" points="11.47 55.24 5.04 51.89 6.45 59.17"/><polyline class="cls-1" points="22.42 1.52 20.71 7.74 27.83 5.63"/><polyline class="cls-1" points="4.7 8.7 4.58 15.95 10.47 11.43"/><polyline class="cls-1" points="10.33 57.99 13.19 64.65 16.71 58.12"/><polyline class="cls-1" points="16.67 41.65 17.5 48.85 23.44 43.9"/><polyline class="cls-1" points="37.74 64.58 44.19 67.9 42.94 59.65"/><polyline class="cls-1" points="66.46 31.68 60.07 28.03 60.73 34.95"/><polyline class="cls-1" points="58.03 19.92 62.23 25.83 64.29 18.71"/><polyline class="cls-1" points="51.19 27.17 53.94 32.15 57.06 25.42"/><polyline class="cls-1" points="6.32 0.12 0.34 4.23 7.44 6.4"/><polyline class="cls-1" points="47.35 10.63 51.09 4.42 45.73 4.37"/><polyline class="cls-1" points="5.63 61.54 2.58 68.11 9.79 66.36"/><polyline class="cls-1" points="24.46 68.06 18.27 64.29 19.19 71.65"/><polyline class="cls-1" points="39.35 54.67 33.44 55.65 38.65 61.01"/><polyline class="cls-1" points="45.64 33.61 38.41 33.16 42.65 39.25"/><polyline class="cls-1" points="42.58 72.18 36.86 67.73 36.94 75.15"/><polyline class="cls-1" points="53.94 9.21 49.95 15.26 57.34 14.6"/><polyline class="cls-1" points="10.7 4.52 14.31 10.81 17.05 3.92"/><polyline class="cls-1" points="4.29 47.57 10.24 43.43 3.13 41.3"/><polyline class="cls-1" points="13.2 33.77 14.83 25.24 7.56 30.73"/><polyline class="cls-1" points="6.04 33.94 0.94 38.08 8.31 38.89"/><polyline class="cls-1" points="56.31 69.25 61.98 73.76 62.48 64.84"/><polyline class="cls-1" points="26.43 68.06 29.69 74.54 32.81 67.81"/><polyline class="cls-1" points="52.1 74.94 51.15 67.76 45.99 73.1"/><polyline class="cls-1" points="14.44 74.15 13.86 66.93 8.44 71.99"/><polyline class="cls-1" points="37.13 7.61 32.63 1.93 30.69 9.15"/><polyline class="cls-1" points="71.62 32.09 70.34 39.22 65.44 33.65"/><polyline class="cls-1" points="65.94 23.15 72.28 19.64 65.42 16.8"/><polyline class="cls-1" points="73.44 23.65 68.48 28.94 75.88 29.55"/><polyline class="cls-1" points="73.19 71.9 68.11 66.73 67.2 74.1"/><polyline class="cls-1" points="70.74 16.12 74.04 9.67 66.77 11.13"/><polyline class="cls-1" points="71.23 63.55 75.44 57.65 68.03 58.03"/><polyline class="cls-1" points="74.54 49.05 68.94 53.65 76.19 55.21"/><polyline class="cls-1" points="71.03 48.74 68.5 41.95 75.55 44.25"/><polyline class="cls-1" points="29.52 14.97 26.1 8.57 23.16 15.38"/><polyline class="cls-1" points="29.19 36.96 25.7 42.26 30.84 42.85"/></g></g></svg>