<svg xmlns="http://www.w3.org/2000/svg" viewBox="0 0 386.35 386.35"><defs><style>.cls-1{fill:none;}.cls-1,.cls-2,.cls-3{stroke:#231f20;stroke-miterlimit:10;stroke-width:3px;}.cls-2{fill:#fff;}.cls-3{fill:#5f98d1;opacity:0.5;}</style></defs><title>Asset 13</title><g id="Layer_2" data-name="Layer 2"><g id="LA_Summary" data-name="LA Summary"><polygon class="cls-1" points="272.57 1.5 113.78 1.5 1.5 113.78 1.5 272.57 113.78 384.85 272.57 384.85 384.85 272.57 384.85 113.78 272.57 1.5"/><polygon class="cls-1" points="268.32 11.76 118.03 11.76 11.76 118.03 11.76 268.32 118.03 374.59 268.32 374.59 374.59 268.32 374.59 118.03 268.32 11.76"/><polygon class="cls-2" points="263.98 22.23 122.37 22.23 22.23 122.37 22.23 263.98 122.37 364.12 263.98 364.12 364.12 263.98 364.12 122.37 263.98 22.23"/><polygon class="cls-3" points="263.22 20.56 121.61 20.56 21.47 120.7 21.47 262.31 121.61 362.45 263.22 362.45 363.36 262.31 363.36 120.7 263.22 20.56"/></g></g></svg>