<svg xmlns="http://www.w3.org/2000/svg" viewBox="0 0 140.3 93.08"><defs><style>.cls-1{fill:#f68e21;}.cls-2{fill:#6ea0d3;}</style></defs><title>Asset 25</title><g id="Layer_2" data-name="Layer 2"><g id="Layer_8" data-name="Layer 8"><path class="cls-1" d="M83.87,37.86s-.25,7.67,3,9.42,6.25,5.62,16.75,5.62,26.12.82,26.12.82S134.49,56.47,136,56s5-3.44,3.5-6.47-9.5-4-9.5-4-24.87-2.27-28.62-2.29c-3,0-8.69-12.58-8.2-17.56"/><path d="M84,37.87a20,20,0,0,0,1.29,6.53,4.57,4.57,0,0,0,1.85,2.33c1,.53,2,1.19,3,1.77A24.54,24.54,0,0,0,93,50.05a19.61,19.61,0,0,0,3.08,1.05,28.9,28.9,0,0,0,6.51.76c4.5,0,9.09,0,13.62.26s9.07.42,13.6.76h0a.8.8,0,0,1,.35.11,26.77,26.77,0,0,0,4,2c.67.24,1.41.48,1.78.29a6.16,6.16,0,0,0,1.75-1.15,4.26,4.26,0,0,0,1.67-3.63,3.05,3.05,0,0,0-1-1.78,8.71,8.71,0,0,0-1.87-1.18,21.72,21.72,0,0,0-4.36-1.39c-.75-.15-1.52-.28-2.26-.38l-2.31-.17c-3.09-.22-6.19-.33-9.29-.5s-6.19-.3-9.28-.55l-4.62-.35-2.3-.15a6.31,6.31,0,0,1-1.36-.14,3.67,3.67,0,0,1-1.28-.78,15.28,15.28,0,0,1-2.85-4,36,36,0,0,1-1.92-4.32A31.24,31.24,0,0,1,93.4,30.3a13.71,13.71,0,0,1-.33-4.69.1.1,0,0,1,.11-.09.11.11,0,0,1,.09.1h0a15.25,15.25,0,0,0,.85,4.48,41.21,41.21,0,0,0,1.67,4.28,40.84,40.84,0,0,0,2.1,4,14.63,14.63,0,0,0,2.66,3.45,2.12,2.12,0,0,0,.7.41,7.08,7.08,0,0,0,.94.05l2.34.11q2.34.12,4.65.33c3.1.24,6.18.61,9.26,1s6.15.79,9.23,1.12l2.32.25c.79.11,1.55.25,2.32.42a24.09,24.09,0,0,1,4.5,1.38,9,9,0,0,1,2.08,1.23,3.79,3.79,0,0,1,1.32,2.17,4.2,4.2,0,0,1-.3,2.55A6.71,6.71,0,0,1,138.49,55a7.44,7.44,0,0,1-2,1.52,2.33,2.33,0,0,1-.78.21,3.36,3.36,0,0,1-.72,0,9.17,9.17,0,0,1-1.25-.28,26.6,26.6,0,0,1-4.39-1.94l.38.11-13.59-.37-13.6-.29a28.32,28.32,0,0,1-6.94-1.06,20.53,20.53,0,0,1-6.29-3.15c-.94-.67-1.81-1.36-2.75-1.93a5.59,5.59,0,0,1-2.13-3,15.3,15.3,0,0,1-.63-3.44,21.82,21.82,0,0,1,0-3.43.1.1,0,0,1,.2,0Z"/><path class="cls-1" d="M36.54,47.2c1.79,4.08,3.69,6.17,4.92,7.14s3.6,2.36,8.16,1.77c9.75-1.25,8.75,5,8.75,5-.54,1.86-1.26,4.42-2,7.5-2.3,9.68-1.56,11-1,11.5,1,1,8.5.5,8.5.5a55.52,55.52,0,0,0,12,.5c2.52-.17,5.81-.42,6-1.44S78.27,77,77.37,76.61c-5.58-2.27-8.34-.94-10.25-2.75-1.28-1.22-2.2-3.82-.5-9.93a64.9,64.9,0,0,1,10.5-16.32c3.53-3.94,6.92-8,10.5-11.91a36.18,36.18,0,0,0,3.59-4.59C93,28.41,93.9,27.05,94,26c.27-5.13-19.75-15.38-39.84-11.67-3.75.7-14.32,2.8-23,11.75a39.21,39.21,0,0,0-6.75,9.5s-3.25,19.75-1.5,23.5-8.25,15.75-11,15.75S.37,76.11.87,80.11s1.25,11.25,4,11.25,10,2,10,0-4-3.5-4-3.5c-.69-1-1.54-2.65-1-4,1.21-3,7.69-1,14.26-4,5.81-2.66,8.72-7.85,10.76-11.53,2.85-5.16,5.29-10,6.17-14.37"/><path d="M36.63,47.16a21.65,21.65,0,0,0,3.93,6,8.5,8.5,0,0,0,2.88,2,9.62,9.62,0,0,0,3.44.68,13.09,13.09,0,0,0,1.77-.06l1.81-.2a13.94,13.94,0,0,1,3.76,0,6.09,6.09,0,0,1,3.5,1.74A4.86,4.86,0,0,1,59,61.2v.08l-1.72,6.79c-.55,2.27-1,4.56-1.36,6.84a19.39,19.39,0,0,0-.27,3.35,2.16,2.16,0,0,0,.28,1.2s.06.07.07.08,0,0,0,0a2.55,2.55,0,0,0,.25.08,5.07,5.07,0,0,0,.75.13,42.48,42.48,0,0,0,6.86,0H64a55.42,55.42,0,0,0,11.07.45,29.27,29.27,0,0,0,5.34-.68,1.81,1.81,0,0,0,.45-.18c.08,0,.06,0,.1,0s0,0-.09.16.07.33,0,.22a2.41,2.41,0,0,0-.32-.31,12.76,12.76,0,0,0-2.24-1.26,22.17,22.17,0,0,0-5.11-1.68c-.88-.17-1.77-.27-2.71-.37a8.4,8.4,0,0,1-3.1-.76,4.94,4.94,0,0,1-2.23-2.68,9,9,0,0,1-.47-3.14,23.61,23.61,0,0,1,1-5.82s0-.1,0-.14v0a66.68,66.68,0,0,1,8.48-13.94c1.72-2.14,3.57-4.1,5.34-6.12l5.35-6a66.66,66.66,0,0,0,5.1-6.07c.74-1.07,1.51-2.22,2.19-3.31a8.87,8.87,0,0,0,.84-1.6,1.22,1.22,0,0,0,.09-.63,1,1,0,0,0-.06-.32,1.11,1.11,0,0,0-.14-.35,8.41,8.41,0,0,0-2.38-2.69,24,24,0,0,0-3.24-2.15A42.71,42.71,0,0,0,80,17.1a52,52,0,0,0-31.36-1,40.39,40.39,0,0,0-14.08,7.31,37.32,37.32,0,0,0-9.89,12.39l0-.1c-.54,3.52-1,7.06-1.37,10.6A67.4,67.4,0,0,0,23,56.87c.05.43.12.85.18,1.26l.42,1.26a5.67,5.67,0,0,1-.32,3,21.64,21.64,0,0,1-2.53,4.9,39.72,39.72,0,0,1-3.33,4.32,18.71,18.71,0,0,1-4.2,3.72,3.92,3.92,0,0,1-.8.32,3.08,3.08,0,0,1-.53.08h-.32c-.41,0-.84,0-1.27.09a24.34,24.34,0,0,0-2.56.4A14.12,14.12,0,0,0,3,77.91a2.66,2.66,0,0,0-1.25,1.53A10.93,10.93,0,0,0,2,81.79,50.22,50.22,0,0,0,2.88,87a13.41,13.41,0,0,0,.81,2.34,3.56,3.56,0,0,0,.59.87.92.92,0,0,0,.58.32c1.93.08,3.65.47,5.41.69a21,21,0,0,0,2.56.24,4,4,0,0,0,1.09-.1c.13,0,.21-.09.17-.06s0,.18-.05,0c0-.43-.61-1.05-1.26-1.49A11.44,11.44,0,0,0,10.6,88.6h0a.72.72,0,0,1-.35-.29A6.84,6.84,0,0,1,8.93,85a3.14,3.14,0,0,1,.58-2,3.56,3.56,0,0,1,1.64-1.16,13.27,13.27,0,0,1,3.33-.61c1.07-.1,2.13-.17,3.17-.3a21.89,21.89,0,0,0,6-1.49A17.19,17.19,0,0,0,28.79,76c3.05-2.85,5.05-6.66,7.16-10.36A47.39,47.39,0,0,0,41,54a.1.1,0,1,1,.19,0c-.76,4.24-2.64,8.16-4.56,12-1,1.9-1.94,3.8-3.05,5.66a26,26,0,0,1-4,5.16,18.17,18.17,0,0,1-5.4,3.75,22.74,22.74,0,0,1-6.33,1.74c-1.07.16-2.15.25-3.2.38a12.71,12.71,0,0,0-2.93.55,1.59,1.59,0,0,0-1.22,1.67,5.42,5.42,0,0,0,1,2.53l-.38-.3a13.12,13.12,0,0,1,2.55,1.32,7.16,7.16,0,0,1,1.16,1,3.15,3.15,0,0,1,.8,1.6,1.55,1.55,0,0,1-.31,1.27,2,2,0,0,1-1,.6,5.94,5.94,0,0,1-1.56.17A22.66,22.66,0,0,1,10,92.85c-1.78-.21-3.57-.58-5.22-.62a2.7,2.7,0,0,1-1.77-.81,4.9,4.9,0,0,1-.93-1.32,13.91,13.91,0,0,1-1-2.7A44.55,44.55,0,0,1,.22,82L.06,80.68a5,5,0,0,1,0-1.63,4.33,4.33,0,0,1,2-2.57,15.73,15.73,0,0,1,5.31-1.94c.91-.18,1.81-.31,2.73-.4.46,0,.92-.08,1.4-.09h.36A.44.44,0,0,1,12,74a2.41,2.41,0,0,0,.44-.18,17.23,17.23,0,0,0,3.85-3.28,38,38,0,0,0,3.3-4.08A20.76,20.76,0,0,0,22.09,62a4.57,4.57,0,0,0,.35-2.3l-.39-1.29c-.06-.46-.13-.93-.17-1.39a67.65,67.65,0,0,1,.65-10.78c.42-3.56.91-7.1,1.5-10.63a.35.35,0,0,1,0-.11A40.25,40.25,0,0,1,34.17,22.88a41.78,41.78,0,0,1,14.26-7.56,53.47,53.47,0,0,1,32.06.35A45.39,45.39,0,0,1,88,18.87a25.9,25.9,0,0,1,3.49,2.25,13.42,13.42,0,0,1,1.6,1.43,6.9,6.9,0,0,1,1.33,1.84,3.15,3.15,0,0,1,.23.59,2.28,2.28,0,0,1,.13.66A3,3,0,0,1,94.66,27a10.16,10.16,0,0,1-1,2c-.73,1.19-1.44,2.27-2.22,3.42s-1.63,2.22-2.53,3.27l-2.67,3L81,44.76c-1.75,2-3.58,4-5.2,6.07a69.7,69.7,0,0,0-8.18,13.54l0-.16a22.38,22.38,0,0,0-.9,5.28,7.17,7.17,0,0,0,.34,2.41,2.9,2.9,0,0,0,1.27,1.58,6.8,6.8,0,0,0,2.35.53c.92.1,1.9.21,2.87.4a24.32,24.32,0,0,1,5.57,1.86,13.76,13.76,0,0,1,2.64,1.52,4,4,0,0,1,.68.68A1.77,1.77,0,0,1,82.8,80a1.88,1.88,0,0,1-.46.75,4,4,0,0,1-.49.34,4.14,4.14,0,0,1-.85.35,15.71,15.71,0,0,1-3,.49c-1,.08-1.9.14-2.86.19a57.36,57.36,0,0,1-11.42-.65h.18a45.58,45.58,0,0,1-7.19-.11,9.9,9.9,0,0,1-1-.19,4,4,0,0,1-.57-.23l-.35-.24a2.73,2.73,0,0,1-.23-.25A3.62,3.62,0,0,1,54,78.32a20.55,20.55,0,0,1,.34-3.65c.39-2.35.94-4.64,1.55-6.92l1.9-6.8V61a3.81,3.81,0,0,0-.88-2.92A5,5,0,0,0,54,56.61a14.15,14.15,0,0,0-3.51-.14l-1.82.14a14.59,14.59,0,0,1-1.87,0,10.49,10.49,0,0,1-3.64-.87,9.15,9.15,0,0,1-3-2.23,22,22,0,0,1-3.76-6.27.11.11,0,0,1,0-.14A.1.1,0,0,1,36.63,47.16Z"/><path class="cls-1" d="M96.33,23.82a2.94,2.94,0,0,1,1.14-.19c7,.09,5.23-2.55,8.15-3.77s.5-8.25-3-8.5-3.5-6.25-3.5-6.25-1.75-5.75-10.75-4S77.12,11.36,77.12,11.36s-5.25,6.19,0,8.56,14.58,5.69,17.17,4.69Z"/><path d="M96.29,23.73a4.89,4.89,0,0,1,1.85-.24,10.88,10.88,0,0,0,1.81-.17,4.39,4.39,0,0,0,3-1.53,17.63,17.63,0,0,1,1.1-1.53,4.48,4.48,0,0,1,.81-.69l.45-.26c.13-.08.18-.14.27-.2a2.69,2.69,0,0,0,.36-2.65,7,7,0,0,0-1.44-2.83,4,4,0,0,0-1.1-.94,2.36,2.36,0,0,0-.59-.22l-.28-.05-.62-.1a3.93,3.93,0,0,1-2.1-1.3,6.76,6.76,0,0,1-1.08-1.93,12.09,12.09,0,0,1-.63-4l0,.3a4.49,4.49,0,0,0-.68-1.23A5.47,5.47,0,0,0,96.41,3.1a7.82,7.82,0,0,0-2.86-1.28,12.53,12.53,0,0,0-3.31-.22c-.57,0-1.14.1-1.71.15s-1.12.21-1.68.34A13.18,13.18,0,0,0,80.94,5.5a14,14,0,0,0-3.42,6,.38.38,0,0,1-.06.13l0,0a12,12,0,0,0-1.66,3.2,3.73,3.73,0,0,0,.12,3.06,5.6,5.6,0,0,0,2.7,1.7L82.06,21c2.32,1,4.62,2,7,2.75a16.47,16.47,0,0,0,3.65.82C94,24.83,95.09,24.12,96.29,23.73Zm.07.19-1.76.7a4.65,4.65,0,0,1-.94.27,6.32,6.32,0,0,1-1,.06,24.4,24.4,0,0,1-3.81-.42,52.11,52.11,0,0,1-7.42-1.91c-1.2-.43-2.4-.87-3.57-1.39a6.33,6.33,0,0,1-3.39-2.55,4.19,4.19,0,0,1-.4-2.25,6.4,6.4,0,0,1,.54-2,12.66,12.66,0,0,1,2.17-3.3l-.08.16a18.45,18.45,0,0,1,3.75-6.19,15.72,15.72,0,0,1,6-4.07A15.11,15.11,0,0,1,93.87.14a7.8,7.8,0,0,1,6.22,4.68.58.58,0,0,1,0,.19v.1a11.41,11.41,0,0,0,.62,3.25,4.94,4.94,0,0,0,.7,1.27,1.86,1.86,0,0,0,1,.61l.28.07.62.11a4.47,4.47,0,0,1,1.12.46,6,6,0,0,1,1.65,1.47,8.06,8.06,0,0,1,1.63,3.77,5.73,5.73,0,0,1,0,2.14,3,3,0,0,1-1.32,1.93,5.27,5.27,0,0,1-.52.27l-.37.14a4,4,0,0,0-.66.41c-.42.33-.77.83-1.25,1.3a4.18,4.18,0,0,1-1.69,1,8,8,0,0,1-1.86.35c-.62,0-1.24.06-1.86.06A4.58,4.58,0,0,0,96.36,23.92Z"/><path class="cls-1" d="M66,34.61s-5,11-4.33,15.34,2.13,30.66,2.13,30.66,2.28,5,5.78,5a16.69,16.69,0,0,0,6.25-1.25,72.18,72.18,0,0,1-1.25-10.5c-.25-5.75,1.25-23.75,1.25-23.75s8.5-6,10-15.5"/><path d="M66.13,34.65c-.65,1.84-1.3,3.68-1.86,5.54a51.16,51.16,0,0,0-1.47,5.59,21.08,21.08,0,0,0-.33,2.77,7.67,7.67,0,0,0,.07,1.29c.08.5.17,1,.22,1.49.24,2,.44,3.9.62,5.85q.51,5.84.82,11.69l.52,11.69-.08-.31a12.08,12.08,0,0,0,1.78,2.82A5.39,5.39,0,0,0,69,84.86a3.67,3.67,0,0,0,.75.12h.87a14.43,14.43,0,0,0,1.73-.15A15.36,15.36,0,0,0,75.7,84l-.23.47c-.47-2.86-.8-5.71-1-8.58s-.24-5.77-.24-8.63,0-5.75.19-8.62S74.75,52.9,75,50a.85.85,0,0,1,.35-.62h0a30,30,0,0,0,3.44-3,32,32,0,0,0,3-3.5,25.94,25.94,0,0,0,2.39-4,23.59,23.59,0,0,0,1.59-4.38h0a.1.1,0,0,1,.12-.07.09.09,0,0,1,.07.11,18.79,18.79,0,0,1-1,4.66,21.69,21.69,0,0,1-2.09,4.34,28.07,28.07,0,0,1-2.91,3.86,26.28,26.28,0,0,1-3.57,3.32l.36-.63c-.2,2.85-.38,5.71-.64,8.56l-.81,8.55a50.79,50.79,0,0,0-.23,8.54,55.88,55.88,0,0,0,1.23,8.45.39.39,0,0,1-.23.46h0a16.82,16.82,0,0,1-3.54,1.15c-.61.12-1.22.22-1.84.29l-.94.07a6.23,6.23,0,0,1-1-.08,6.46,6.46,0,0,1-3.43-2A14,14,0,0,1,63.05,81a1,1,0,0,1-.08-.26v-.06L62.1,69l-.39-5.84-.34-5.83c-.11-1.94-.21-3.89-.37-5.81,0-.49-.08-1-.12-1.42a8.87,8.87,0,0,1,0-1.63,17.12,17.12,0,0,1,.57-3A57.61,57.61,0,0,1,66,34.57a.1.1,0,0,1,.14,0A.1.1,0,0,1,66.13,34.65Z"/><path d="M88.84,6.46c-1.21.25-2.21.34-3,.53a5.62,5.62,0,0,0-1.09.26,4,4,0,0,0-1,.72,1.47,1.47,0,0,0-.47,1.35c.09.5.55.82.89,1.12a2.52,2.52,0,0,1,.45.57l.37.59c.24.43.52.85.8,1.44h0a.11.11,0,0,1,0,.16h0a3,3,0,0,1-3-1.92,4.76,4.76,0,0,1-.11-1.94c0-.59,0-1.17.12-1.82a3.15,3.15,0,0,1,2.87-2.66,4.06,4.06,0,0,1,1.88.31,3.86,3.86,0,0,1,1.49,1.09.12.12,0,0,1,0,.16l-.05,0Z"/><path d="M98.53,4a7.88,7.88,0,0,0-2.75,2.33,3.51,3.51,0,0,0-.23,2.84,8.22,8.22,0,0,0,.59,1.61,7.26,7.26,0,0,0,1,1.38,3.8,3.8,0,0,0,1.42,1,3.14,3.14,0,0,0,1.79.17.3.3,0,0,1,.36.24.32.32,0,0,1,0,.17h0a3.22,3.22,0,0,0,0,2.23,6.09,6.09,0,0,0,1,1.69A5.77,5.77,0,0,0,103.39,19a8,8,0,0,0,2.22.77.11.11,0,0,1,.08.13.08.08,0,0,1,0,.07,4,4,0,0,1-2.69.32A4.77,4.77,0,0,1,100.42,19a3.67,3.67,0,0,1-1-2.74,6.89,6.89,0,0,1,.72-2.64l.35.42a7.53,7.53,0,0,1-2.12,0,5.8,5.8,0,0,1-2.1-.67,6.6,6.6,0,0,1-2.68-3.52,4.3,4.3,0,0,1-.27-1.15,4.31,4.31,0,0,1,0-1.24,4.2,4.2,0,0,1,1.14-2.21,5.3,5.3,0,0,1,4.06-1.39.11.11,0,0,1,.1.11.08.08,0,0,1,0,.08Z"/><path class="cls-1" d="M30.37,25.86a9.27,9.27,0,0,1,.17-10.08c3-4,8.7-3.06,10-2.83a12.86,12.86,0,0,1,7.83,4.83c.76,1,1.69,2.67,2.53,8.28A70.65,70.65,0,0,1,51.71,37c-.18,12.11-2.44,15.55-.34,22.66.22.74,1.74,5.86,3.25,5.75,1.79-.13,2.6-7.4,2.75-8.75.53-4.68.12-7.73-.24-12.16-.81-10,.08-9.24-.76-16.59C55.51,20.23,55,16.34,52.21,13a17.36,17.36,0,0,0-8.09-5.34c-.51-.17-11.14-3.51-18,3C20.5,16,19.59,25.88,24.87,33.86"/><path d="M30.29,25.91a10.27,10.27,0,0,1-1.62-5.71,8.16,8.16,0,0,1,2.26-5.62,9,9,0,0,1,5.62-2.5,14.51,14.51,0,0,1,3.09,0,12.32,12.32,0,0,1,3,.64A13.67,13.67,0,0,1,48,16a10.56,10.56,0,0,1,1.93,2.57A15,15,0,0,1,51,21.47a45.09,45.09,0,0,1,1.13,5.9q.41,3,.58,5.94c.12,2,.08,4,0,6s-.22,4-.44,5.93c-.39,4-1.19,7.79-.6,11.48a25.57,25.57,0,0,0,1.53,5.45,7.14,7.14,0,0,0,1.24,2.24c.05,0,.11.11.13.1l0,0a0,0,0,0,0,0,0s-.08,0,0,0a3.27,3.27,0,0,0,.57-1A28.4,28.4,0,0,0,56.52,58a41.44,41.44,0,0,0,.56-5.77c0-1.94-.09-3.89-.22-5.84s-.26-3.93-.35-5.9-.1-3.95,0-5.91a44,44,0,0,0-.32-5.84c-.51-3.87-.87-7.85-2.15-11.45a14.39,14.39,0,0,0-7.63-7.87,20.25,20.25,0,0,0-2.62-1C42.86,8.16,41.92,8,41,7.8a24.34,24.34,0,0,0-5.65-.21,14.21,14.21,0,0,0-9.74,4.73,16.29,16.29,0,0,0-3.71,10.45,21.16,21.16,0,0,0,.78,5.69A23.33,23.33,0,0,0,25,33.81a.09.09,0,0,1,0,.13.09.09,0,0,1-.13,0,20.57,20.57,0,0,1-3.94-11.13,17.19,17.19,0,0,1,3.56-11.46,14.53,14.53,0,0,1,4.83-3.86,17.2,17.2,0,0,1,5.94-1.64,23,23,0,0,1,6.09.22,21.18,21.18,0,0,1,3,.69A20.73,20.73,0,0,1,47.1,7.92,17.19,17.19,0,0,1,52,11.64,13.92,13.92,0,0,1,55,16.92a32.51,32.51,0,0,1,1.13,5.87c.23,2,.42,3.91.62,5.87.47,3.94.14,7.9.42,11.79s.87,7.77,1,11.77a43.91,43.91,0,0,1-.3,6,25.84,25.84,0,0,1-1.22,5.94,4.42,4.42,0,0,1-.92,1.55,1.6,1.6,0,0,1-1.28.5,2.32,2.32,0,0,1-.38-.06l-.3-.14a1.88,1.88,0,0,1-.46-.33,8.54,8.54,0,0,1-1.74-2.8A26.51,26.51,0,0,1,49.82,57a24.12,24.12,0,0,1-.19-6.11c.15-2,.39-3.93.56-5.87a85.17,85.17,0,0,0,.38-11.61A67.38,67.38,0,0,0,49.12,22a13.91,13.91,0,0,0-.86-2.6,8.87,8.87,0,0,0-1.54-2.17,12,12,0,0,0-4.57-3,12.61,12.61,0,0,0-2.69-.67,13.84,13.84,0,0,0-2.8-.14,7.85,7.85,0,0,0-5,1.93,7.57,7.57,0,0,0-2.33,4.93,10.27,10.27,0,0,0,1.15,5.57.1.1,0,0,1,0,.14A.1.1,0,0,1,30.29,25.91Z"/><path class="cls-2" d="M105.63,19.78c3-1.25.5-8.25-3-8.5S99.13,5,99.13,5h0a1,1,0,0,0-.26-.83c-.76-.65-3.57.45-4.36,2.52a4.27,4.27,0,0,0,.12,3c1.75,4.83,5.75,3.9,5.75,3.9a4.58,4.58,0,0,0,0,3.62,4.59,4.59,0,0,0,2.5,2.23,5.38,5.38,0,0,0,2.75.33"/><path d="M105.59,19.69a2,2,0,0,0,.88-1.73,5.62,5.62,0,0,0-.36-2,7.06,7.06,0,0,0-2.25-3.16,3.64,3.64,0,0,0-.73-.38.94.94,0,0,0-.36-.08l-.51-.08a3.83,3.83,0,0,1-2.54-1.52,6.6,6.6,0,0,1-1.09-2.38A13.53,13.53,0,0,1,98.27,6c0-.2,0-.4,0-.6s0-.5,0-.53,0-.11,0-.05,0,.05.07,0,0,0,0,0a2.93,2.93,0,0,0-1.69.34,3.21,3.21,0,0,0-2,3.18,5.51,5.51,0,0,0,2,3.6,4.26,4.26,0,0,0,1.76.78,5.86,5.86,0,0,0,.93.09,6.49,6.49,0,0,0,.86-.07l1.6-.29L101.2,14a4.45,4.45,0,0,0-.32,2,3.44,3.44,0,0,0,.73,1.83,4.93,4.93,0,0,0,1.72,1.33,6.1,6.1,0,0,0,2.29.59l0,.2A4.88,4.88,0,0,1,103,20a5.23,5.23,0,0,1-2.47-1.27,4.62,4.62,0,0,1-1.37-2.6,5.16,5.16,0,0,1,.39-2.9l1,1.22a4,4,0,0,1-1.37,0,5,5,0,0,1-1.27-.31,5.24,5.24,0,0,1-2.06-1.48,8.22,8.22,0,0,1-1.22-2.06A9.11,9.11,0,0,1,94,8.41,4.23,4.23,0,0,1,94.41,6,5.2,5.2,0,0,1,96,4.14a4,4,0,0,1,2.54-.89,2,2,0,0,1,.49.11,1.78,1.78,0,0,1,.53.36,1.81,1.81,0,0,1,.41,1c0,.34,0,.4,0,.59l.06.52a7.56,7.56,0,0,0,1.3,3.64,1.84,1.84,0,0,0,1.19.73.78.78,0,0,0,.21.05l.38.08a2.57,2.57,0,0,1,.71.22,5.22,5.22,0,0,1,1.21.74,7.58,7.58,0,0,1,2.34,4.38,5.84,5.84,0,0,1-.1,2.46,2.38,2.38,0,0,1-1.66,1.75Z"/></g></g></svg>